<?xml version="1.0" standalone="no"?>
<!DOCTYPE svg PUBLIC "-//W3C//DTD SVG 20010904//EN"
 "http://www.w3.org/TR/2001/REC-SVG-20010904/DTD/svg10.dtd">
<svg version="1.0" xmlns="http://www.w3.org/2000/svg"
 width="48.000000pt" height="48.000000pt" viewBox="0 0 48.000000 48.000000"
 preserveAspectRatio="xMidYMid meet">

<g transform="translate(0.000000,48.000000) scale(0.100000,-0.100000)"
fill="#A7A8A9" stroke="none">
<path d="M254 387 c-53 -15 -67 -27 -103 -92 -17 -29 -39 -56 -51 -60 -27 -9
-44 -40 -27 -52 24 -19 278 -105 292 -99 17 6 19 29 5 56 -7 13 -6 41 2 88 11
64 10 72 -8 97 -10 15 -23 35 -29 44 -11 17 -27 31 -35 30 -3 -1 -24 -6 -46
-12z"/>
<path d="M206 95 c8 -19 52 -31 65 -18 7 7 0 14 -22 22 -42 15 -50 14 -43 -4z"/>
</g>
</svg>
