<?xml version="1.0" standalone="no"?>
<!DOCTYPE svg PUBLIC "-//W3C//DTD SVG 20010904//EN"
 "http://www.w3.org/TR/2001/REC-SVG-20010904/DTD/svg10.dtd">
<svg version="1.0" xmlns="http://www.w3.org/2000/svg"
 width="512.000000pt" height="512.000000pt" viewBox="0 0 512.000000 512.000000"
 preserveAspectRatio="xMidYMid meet">

<g transform="translate(0.000000,512.000000) scale(0.100000,-0.100000)"
fill="#000000" stroke="none">
<path d="M2400 4553 c-863 -38 -1618 -471 -1939 -1111 -157 -313 -184 -657
-76 -979 92 -275 270 -515 557 -751 47 -40 95 -84 106 -99 43 -62 44 -80 37
-552 l-8 -448 22 -22 c37 -37 80 -28 228 49 263 138 470 281 644 447 136 128
143 131 337 115 539 -44 1020 46 1483 278 403 202 736 517 888 841 90 192 116
314 116 544 -1 242 -35 386 -140 600 -284 574 -985 994 -1795 1074 -107 11
-362 19 -460 14z m555 -192 c404 -59 749 -184 1030 -371 148 -99 337 -287 428
-425 221 -335 274 -709 152 -1073 -177 -530 -700 -925 -1415 -1071 -278 -57
-528 -76 -785 -59 -286 18 -335 3 -493 -145 -114 -107 -216 -189 -333 -268
-88 -59 -278 -169 -292 -169 -4 0 -6 179 -5 399 l3 398 -40 79 c-32 62 -53 89
-105 132 -176 147 -237 203 -299 277 -108 128 -184 251 -236 379 -175 442 -70
919 284 1289 168 175 329 292 556 403 465 227 1000 305 1550 225z"/>
<path d="M3280 3764 c-159 -29 -270 -72 -384 -148 -178 -119 -306 -297 -368
-513 -32 -113 -32 -320 1 -448 30 -119 106 -274 175 -357 186 -224 501 -346
797 -308 398 51 675 303 765 695 29 126 25 314 -10 428 -95 315 -311 531 -622
622 -69 21 -116 27 -209 30 -66 2 -131 2 -145 -1z m305 -185 c151 -36 283
-118 375 -232 65 -81 103 -154 136 -262 34 -115 39 -291 11 -395 -41 -150
-135 -293 -260 -393 -216 -173 -518 -206 -772 -82 -161 78 -269 188 -346 350
-128 273 -70 615 141 825 88 87 173 140 285 176 141 45 279 50 430 13z"/>
<path d="M3005 3115 c-31 -30 -32 -65 -2 -93 29 -27 61 -28 87 -2 29 29 26 74
-6 99 -34 27 -50 26 -79 -4z"/>
<path d="M3715 3128 c-28 -16 -35 -28 -35 -65 0 -34 29 -63 63 -63 24 0 67 44
67 68 0 44 -58 81 -95 60z"/>
<path d="M2953 2720 c-40 -16 -58 -87 -30 -123 6 -9 52 -35 100 -57 246 -115
502 -121 722 -16 95 45 135 80 135 118 0 41 -14 63 -49 78 -27 11 -38 8 -133
-38 -131 -64 -187 -76 -324 -69 -116 5 -185 24 -314 86 -70 33 -74 34 -107 21z"/>
<path d="M1201 3534 c-166 -44 -310 -194 -357 -369 -29 -106 -13 -228 43 -340
30 -60 536 -574 592 -602 49 -25 163 -24 211 1 47 24 518 497 564 566 103 154
102 366 -2 526 -96 147 -249 234 -411 234 -75 0 -121 -11 -203 -47 l-57 -25
-46 22 c-103 50 -227 63 -334 34z m199 -155 c25 -5 70 -25 102 -44 31 -19 64
-35 74 -35 11 0 57 19 103 42 77 40 89 43 160 42 129 -1 230 -62 292 -176 32
-59 34 -69 34 -153 -1 -139 -6 -148 -299 -442 -232 -234 -254 -253 -286 -253
-32 0 -54 19 -282 248 -206 206 -252 257 -274 305 -116 255 104 528 376 466z"/>
</g>
</svg>
