<?xml version="1.0" standalone="no"?>
<!DOCTYPE svg PUBLIC "-//W3C//DTD SVG 20010904//EN"
 "http://www.w3.org/TR/2001/REC-SVG-20010904/DTD/svg10.dtd">
<svg version="1.0" xmlns="http://www.w3.org/2000/svg"
 width="512.000000pt" height="512.000000pt" viewBox="0 0 512.000000 512.000000"
 preserveAspectRatio="xMidYMid meet">

<g transform="translate(0.000000,512.000000) scale(0.100000,-0.100000)"
fill="#A7A8A9" stroke="none">
<path d="M2345 4629 c-228 -24 -490 -100 -700 -203 -647 -318 -1082 -946
-1155 -1665 -35 -350 29 -898 156 -1341 88 -309 169 -561 202 -625 100 -199
332 -329 561 -312 78 5 301 68 390 110 59 27 141 109 168 167 29 63 46 153 38
203 -8 50 -316 1068 -347 1145 -28 71 -94 141 -170 182 -54 29 -75 35 -149 38
-78 4 -97 1 -225 -38 -76 -23 -172 -60 -213 -81 -40 -22 -75 -38 -77 -37 -10
11 -26 356 -21 463 27 573 320 1087 797 1398 812 528 1888 305 2428 -504 185
-277 292 -632 292 -973 0 -91 -18 -377 -25 -384 -1 -1 -36 15 -76 37 -105 56
-325 122 -409 122 -83 0 -111 -6 -183 -44 -72 -37 -137 -109 -165 -179 -31
-77 -339 -1095 -347 -1145 -13 -86 31 -215 100 -292 48 -53 127 -92 290 -142
132 -41 147 -44 255 -43 98 0 125 4 182 26 149 56 262 153 329 283 50 95 198
578 259 845 86 375 128 830 101 1107 -98 1002 -871 1780 -1870 1882 -117 12
-298 12 -416 0z"/>
</g>
</svg>
