<?xml version="1.0" standalone="no"?>
<!DOCTYPE svg PUBLIC "-//W3C//DTD SVG 20010904//EN"
 "http://www.w3.org/TR/2001/REC-SVG-20010904/DTD/svg10.dtd">
<svg version="1.0" xmlns="http://www.w3.org/2000/svg"
 width="200.000000pt" height="200.000000pt" viewBox="0 0 200.000000 200.000000"
 preserveAspectRatio="xMidYMid meet">

<g transform="translate(0.000000,200.000000) scale(0.100000,-0.100000)"
fill="#A7A8A9" stroke="none">
<path d="M1383 1981 c-19 -12 -97 -112 -203 -260 l-171 -240 -103 6 c-128 7
-224 -12 -334 -67 -79 -40 -172 -116 -172 -141 0 -8 195 -209 434 -448 375
-375 436 -432 455 -426 12 4 43 35 68 68 98 132 139 266 130 421 -2 50 -6 97
-8 105 -3 10 82 73 241 182 254 174 280 198 280 263 0 25 -37 67 -247 280
-137 138 -257 256 -268 263 -29 18 -66 16 -102 -6z"/>
<path d="M572 779 c-473 -599 -572 -726 -572 -739 0 -20 20 -40 39 -40 13 0
791 607 838 653 10 10 -11 36 -101 126 l-114 113 -90 -113z"/>
</g>
</svg>
