<?xml version="1.0" ?><!DOCTYPE svg  PUBLIC '-//W3C//DTD SVG 1.1//EN'  'http://www.w3.org/Graphics/SVG/1.1/DTD/svg11.dtd'><svg height="1639.76px" style="enable-background:new 0 0 1708 1639.76;" version="1.1" viewBox="0 0 1708 1639.76" width="1708px" xml:space="preserve" xmlns="http://www.w3.org/2000/svg" xmlns:xlink="http://www.w3.org/1999/xlink"><g id="gift"><path d="M1543.029,523.76h-255.695c26.372-14,47.144-27.469,62.511-42.832c109.927-109.937,109.927-288.698-0.001-398.628   c-53.254-53.254-124.057-82.528-199.365-82.528c-75.31,0-146.112,29.357-199.366,82.61   c-37.891,37.891-69.442,108.625-95.895,215.302c-26.452-106.688-58.004-177.413-95.896-215.31   C706.067,29.124,635.264-0.22,559.953-0.22c-75.31,0-146.113,29.286-199.365,82.539   c-109.932,109.926-109.933,288.501-0.002,398.435c15.45,15.449,36.358,29.006,62.936,43.006H165.455   C74.375,523.76,0,598.289,0,689.368v786.241c0,91.08,74.375,164.15,165.455,164.15h1377.574c91.079,0,164.971-73.07,164.971-164.15   V689.368C1708,598.289,1634.108,523.76,1543.029,523.76z M1027,655.76v852H684v-852H1027z M970.52,387.079   c32.814-160.122,64.961-202.161,74.031-211.233c28.294-28.293,65.914-43.878,105.928-43.878c40.013,0,77.633,15.585,105.927,43.878   c58.407,58.409,58.407,153.447,0.002,211.855c-34.381,34.381-169.938,69.997-302.283,90.709   C958.365,451.33,963.813,419.792,970.52,387.079z M454.025,175.84c28.295-28.293,65.915-43.875,105.928-43.875   c40.015,0,77.637,15.583,105.928,43.875c34.379,34.384,69.997,169.941,90.71,302.286c-27.083-4.242-58.621-9.691-91.334-16.396   c-160.122-32.815-202.163-64.964-211.233-74.032c-28.294-28.293-43.876-65.913-43.876-105.93   C410.147,241.755,425.731,204.136,454.025,175.84z M132,1475.609V689.368c0-18.218,15.239-33.608,33.455-33.608H552v852H165.455   C147.239,1507.76,132,1493.828,132,1475.609z M1576,1475.609c0,18.219-14.755,32.15-32.971,32.15H1159v-852h384.029   c18.216,0,32.971,15.391,32.971,33.608V1475.609z" fill="#7E8186" /></g><g id="Layer_1"/></svg>