<svg xmlns="http://www.w3.org/2000/svg" xmlns:xlink="http://www.w3.org/1999/xlink" version="1.1" width="256" height="256" viewBox="0 0 256 256" xml:space="preserve">

<defs>
</defs>
<g style="stroke: none; stroke-width: 0; stroke-dasharray: none; stroke-linecap: butt; stroke-linejoin: miter; stroke-miterlimit: 10; fill: none; fill-rule: nonzero; opacity: 1;" transform="translate(1.4065934065934016 1.4065934065934016) scale(2.81 2.81)" >
	<path d="M 0 42.697 l 0 4.606 c 0 1.352 0.877 2.526 2.183 2.92 c 4.405 1.33 8.975 2.093 13.59 2.269 l 0 8.291 c 0 0.589 0.324 1.125 0.846 1.399 c 0.524 0.275 1.153 0.237 1.64 -0.099 c 5.789 -3.998 10.967 -9.257 15.388 -15.632 c 0.601 -0.867 0.601 -2.033 0 -2.9 c -4.421 -6.375 -9.599 -11.635 -15.388 -15.633 l 0 0 c -0.487 -0.337 -1.116 -0.375 -1.64 -0.099 c -0.522 0.274 -0.846 0.81 -0.846 1.399 l 0 8.291 c -4.616 0.176 -9.186 0.939 -13.59 2.269 C 0.877 40.171 0 41.344 0 42.697 z" style="stroke: none; stroke-width: 1; stroke-dasharray: none; stroke-linecap: butt; stroke-linejoin: miter; stroke-miterlimit: 10; fill: #A7A8A9; fill-rule: nonzero; opacity: 1;" transform=" matrix(1 0 0 1 0 0) " stroke-linecap="round" />
	<path d="M 47.303 90 h -4.606 c -1.352 0 -2.526 -0.877 -2.92 -2.183 c -1.33 -4.405 -2.093 -8.975 -2.269 -13.59 h -8.291 c -0.589 0 -1.125 -0.324 -1.399 -0.846 c -0.275 -0.524 -0.237 -1.153 0.099 -1.64 c 3.998 -5.789 9.257 -10.967 15.632 -15.388 c 0.867 -0.601 2.033 -0.601 2.9 0 c 6.375 4.421 11.635 9.599 15.633 15.388 l 0 0 c 0.337 0.487 0.375 1.116 0.099 1.64 c -0.274 0.522 -0.81 0.846 -1.399 0.846 l -8.291 0 c -0.176 4.616 -0.939 9.186 -2.269 13.59 C 49.829 89.123 48.656 90 47.303 90 z" style="stroke: none; stroke-width: 1; stroke-dasharray: none; stroke-linecap: butt; stroke-linejoin: miter; stroke-miterlimit: 10; fill: #A7A8A9; fill-rule: nonzero; opacity: 1;" transform=" matrix(1 0 0 1 0 0) " stroke-linecap="round" />
	<path d="M 42.697 0 l 4.606 0 c 1.352 0 2.526 0.877 2.92 2.183 c 1.33 4.405 2.093 8.975 2.269 13.59 l 8.291 0 c 0.589 0 1.125 0.324 1.399 0.846 c 0.275 0.524 0.237 1.153 -0.099 1.64 c -3.998 5.789 -9.257 10.967 -15.632 15.388 c -0.867 0.601 -2.033 0.601 -2.9 0 c -6.375 -4.421 -11.635 -9.599 -15.633 -15.388 l 0 0 c -0.337 -0.487 -0.375 -1.116 -0.099 -1.64 c 0.274 -0.522 0.81 -0.846 1.399 -0.846 l 8.291 0 c 0.176 -4.616 0.939 -9.186 2.269 -13.59 C 40.171 0.877 41.344 0 42.697 0 z" style="stroke: none; stroke-width: 1; stroke-dasharray: none; stroke-linecap: butt; stroke-linejoin: miter; stroke-miterlimit: 10; fill: #A7A8A9; fill-rule: nonzero; opacity: 1;" transform=" matrix(1 0 0 1 0 0) " stroke-linecap="round" />
	<path d="M 90 47.303 v -4.606 c 0 -1.352 -0.877 -2.526 -2.183 -2.92 c -4.405 -1.33 -8.975 -2.093 -13.59 -2.269 l 0 -8.291 c 0 -0.589 -0.324 -1.125 -0.846 -1.399 c -0.524 -0.275 -1.153 -0.237 -1.64 0.099 c -5.789 3.998 -10.967 9.257 -15.388 15.632 c -0.601 0.867 -0.601 2.033 0 2.9 c 4.421 6.375 9.599 11.635 15.388 15.633 l 0 0 c 0.487 0.337 1.116 0.375 1.64 0.099 c 0.522 -0.274 0.846 -0.81 0.846 -1.399 v -8.291 c 4.616 -0.176 9.186 -0.939 13.59 -2.269 C 89.123 49.829 90 48.656 90 47.303 z" style="stroke: none; stroke-width: 1; stroke-dasharray: none; stroke-linecap: butt; stroke-linejoin: miter; stroke-miterlimit: 10; fill: #A7A8A9; fill-rule: nonzero; opacity: 1;" transform=" matrix(1 0 0 1 0 0) " stroke-linecap="round" />
</g>
</svg>