<svg xmlns="http://www.w3.org/2000/svg" xmlns:xlink="http://www.w3.org/1999/xlink" version="1.1" width="256" height="256" viewBox="0 0 256 256" xml:space="preserve">

<defs>
</defs>
<g style="stroke: none; stroke-width: 0; stroke-dasharray: none; stroke-linecap: butt; stroke-linejoin: miter; stroke-miterlimit: 10; fill: #A7A8A9; fill-rule: nonzero; opacity: 1;" transform="translate(1.4065934065934016 1.4065934065934016) scale(2.81 2.81)" >
	<path d="M 1.169 84.563 l 4.268 4.268 c 1.253 1.253 3.154 1.528 4.729 0.683 c 5.314 -2.849 10.255 -6.377 14.695 -10.491 l 7.682 7.682 c 0.546 0.546 1.343 0.742 2.081 0.512 c 0.741 -0.231 1.288 -0.848 1.428 -1.612 c 1.66 -9.069 1.584 -18.739 -0.226 -28.744 c -0.246 -1.361 -1.326 -2.441 -2.687 -2.687 c -10.004 -1.811 -19.675 -1.887 -28.744 -0.227 l 0 0 c -0.764 0.14 -1.381 0.687 -1.612 1.428 c -0.23 0.738 -0.034 1.535 0.512 2.081 l 7.682 7.682 c -4.114 4.44 -7.642 9.382 -10.49 14.695 C -0.359 81.41 -0.084 83.31 1.169 84.563 z" style="stroke: none; stroke-width: 1; stroke-dasharray: none; stroke-linecap: butt; stroke-linejoin: miter; stroke-miterlimit: 10; fill: #A7A8A9; fill-rule: nonzero; opacity: 1;" transform=" matrix(1 0 0 1 0 0) " stroke-linecap="round" />
	<path d="M 88.831 84.563 l -4.268 4.268 c -1.253 1.253 -3.154 1.528 -4.729 0.683 c -5.314 -2.849 -10.255 -6.377 -14.695 -10.491 l -7.682 7.682 c -0.546 0.546 -1.343 0.742 -2.081 0.512 c -0.741 -0.231 -1.288 -0.848 -1.428 -1.612 c -1.66 -9.069 -1.584 -18.739 0.226 -28.744 c 0.246 -1.361 1.326 -2.441 2.687 -2.687 c 10.004 -1.811 19.675 -1.887 28.744 -0.227 l 0 0 c 0.764 0.14 1.381 0.687 1.612 1.428 c 0.23 0.738 0.034 1.535 -0.512 2.081 l -7.682 7.682 c 4.114 4.44 7.642 9.382 10.49 14.695 C 90.359 81.41 90.084 83.31 88.831 84.563 z" style="stroke: none; stroke-width: 1; stroke-dasharray: none; stroke-linecap: butt; stroke-linejoin: miter; stroke-miterlimit: 10; fill: #A7A8A9; fill-rule: nonzero; opacity: 1;" transform=" matrix(1 0 0 1 0 0) " stroke-linecap="round" />
	<path d="M 1.169 5.437 l 4.268 -4.268 C 6.69 -0.084 8.59 -0.359 10.166 0.486 c 5.314 2.849 10.255 6.377 14.695 10.491 l 7.682 -7.682 c 0.546 -0.546 1.343 -0.742 2.081 -0.512 c 0.741 0.231 1.288 0.848 1.428 1.612 c 1.66 9.069 1.584 18.739 -0.226 28.744 c -0.246 1.361 -1.326 2.441 -2.687 2.687 c -10.004 1.811 -19.675 1.887 -28.744 0.227 l 0 0 c -0.764 -0.14 -1.381 -0.687 -1.612 -1.428 c -0.23 -0.738 -0.034 -1.535 0.512 -2.081 l 7.682 -7.682 c -4.114 -4.44 -7.642 -9.382 -10.49 -14.695 C -0.359 8.59 -0.084 6.69 1.169 5.437 z" style="stroke: none; stroke-width: 1; stroke-dasharray: none; stroke-linecap: butt; stroke-linejoin: miter; stroke-miterlimit: 10; fill: #A7A8A9; fill-rule: nonzero; opacity: 1;" transform=" matrix(1 0 0 1 0 0) " stroke-linecap="round" />
	<path d="M 88.831 5.437 l -4.268 -4.268 c -1.253 -1.253 -3.154 -1.528 -4.729 -0.683 C 74.521 3.335 69.579 6.863 65.14 10.977 l -7.682 -7.682 c -0.546 -0.546 -1.343 -0.742 -2.081 -0.512 c -0.741 0.231 -1.288 0.848 -1.428 1.612 c -1.66 9.069 -1.584 18.739 0.226 28.744 c 0.246 1.361 1.326 2.441 2.687 2.687 c 10.004 1.811 19.675 1.887 28.744 0.227 l 0 0 c 0.764 -0.14 1.381 -0.687 1.612 -1.428 c 0.23 -0.738 0.034 -1.535 -0.512 -2.081 l -7.682 -7.682 c 4.114 -4.44 7.642 -9.382 10.49 -14.695 C 90.359 8.59 90.084 6.69 88.831 5.437 z" style="stroke: none; stroke-width: 1; stroke-dasharray: none; stroke-linecap: butt; stroke-linejoin: miter; stroke-miterlimit: 10; fill: #A7A8A9; fill-rule: nonzero; opacity: 1;" transform=" matrix(1 0 0 1 0 0) " stroke-linecap="round" />
</g>
</svg>