<?xml version="1.0" standalone="no"?>
<!DOCTYPE svg PUBLIC "-//W3C//DTD SVG 20010904//EN"
 "http://www.w3.org/TR/2001/REC-SVG-20010904/DTD/svg10.dtd">
<svg version="1.0" xmlns="http://www.w3.org/2000/svg"
 width="64.000000pt" height="64.000000pt" viewBox="0 0 64.000000 64.000000"
 preserveAspectRatio="xMidYMid meet">

<g transform="translate(0.000000,64.000000) scale(0.100000,-0.100000)"
fill="#A7A8A9" stroke="none">
<path d="M287 624 c-4 -4 -7 -20 -7 -36 0 -19 -6 -31 -17 -34 -10 -3 -32 -12
-50 -19 -29 -13 -34 -12 -58 7 l-27 21 -25 -26 -26 -25 21 -27 c18 -22 19 -31
10 -48 -6 -11 -14 -32 -18 -46 -5 -20 -14 -27 -41 -31 -31 -5 -34 -8 -34 -40
0 -32 3 -35 34 -40 27 -4 36 -11 41 -31 4 -14 12 -35 18 -46 9 -17 8 -26 -10
-48 l-21 -27 26 -25 25 -26 27 21 c22 18 31 19 48 10 11 -6 32 -14 46 -18 20
-5 27 -14 31 -41 5 -31 8 -34 40 -34 32 0 35 3 40 34 4 27 11 36 31 41 14 4
35 12 46 18 17 9 26 8 48 -10 l27 -21 25 26 26 25 -21 27 c-18 22 -19 31 -10
48 6 11 14 32 18 46 5 20 14 27 41 31 31 5 34 8 34 40 0 32 -3 35 -34 40 -27
4 -36 11 -41 31 -4 14 -12 35 -18 46 -9 17 -8 26 10 48 l21 27 -26 25 -25 26
-27 -21 c-22 -18 -31 -19 -48 -10 -11 6 -32 14 -46 18 -20 5 -27 14 -31 41 -4
29 -9 34 -35 37 -17 2 -34 0 -38 -4z m101 -184 c18 -11 41 -34 52 -52 71 -117
-71 -259 -188 -188 -18 11 -41 34 -52 52 -71 117 71 259 188 188z"/>
</g>
</svg>
